<svg xmlns="http://www.w3.org/2000/svg" width="329" height="170" viewBox="0 0 329 170">
  <defs>
    <style>
      .cls-1 {
        fill: none;
      }

      .cls-2, .cls-3 {
        fill: #fff;
      }

      .cls-2 {
        stroke: rgba(0,0,0,0);
      }
    </style>
  </defs>
  <g id="header" transform="translate(-880 -583)">
    <rect id="Rectangle_1" data-name="Rectangle 1" class="cls-1" width="329" height="170" transform="translate(880 583)"/>
    <g id="logo" transform="translate(899 603)">
      <path id="Pfad_1" data-name="Pfad 1" class="cls-2" d="M16.262-60.539v45.114H10.213V-60.539H3.66v-5.349h6.553v-5.147q0-10.7,2.924-14.483T23.521-89.3l9.779.5v5.147q-5.95-.2-8.872-.2-4.738,0-6.452,2.624T16.262-70.935v5.046H31.485v5.349Zm56.96,40.068,3.024-.3.2,4.945a160.657,160.657,0,0,1-19.254,1.413q-10.89-.1-15.225-6.459t-4.335-19.58Q37.635-66.9,58.4-66.9q9.981,0,14.921,5.7t4.94,18.217l-.2,4.844H43.784q0,9.285,3.176,13.777t10.888,4.491Q65.56-19.866,73.222-20.471ZM43.784-43.18H72.211q0-9.992-3.276-14.229T58.453-61.649q-7.208,0-10.938,4.39T43.784-43.18ZM96.611-15.425h-5.95V-65.888h5.95v3.734A33.574,33.574,0,0,1,113.044-66.9q10.081,0,13.459,5.349t3.374,19.58v26.544h-6.049V-41.666q0-11.607-2.218-15.694t-9.477-4.088a28.134,28.134,0,0,0-7.41,1.06,30.979,30.979,0,0,0-6,2.17l-2.117,1.009ZM169.5-60.539H152.664V-35.61q0,9.79,1.411,12.818t6.654,3.028L170-20.471l.4,5.147a73.45,73.45,0,0,1-10.182,1.009q-7.662,0-10.636-3.785t-2.975-14.483V-60.539h-7.46v-5.349h7.46V-81.734h6.049v15.846H169.5Zm9.477,45.114V-65.888h5.95v50.463Zm0-63.079v-7.57h5.95v7.57Zm23.742,17.561q4.789-5.956,16.332-5.956t16.332,5.956q4.793,5.956,4.793,20.185t-4.39,20.286Q231.4-14.416,219.1-14.416t-16.735-6.056q-4.436-6.056-4.436-20.286T202.719-60.943Zm4.234,36.583q2.772,4.592,12.1,4.592T231.2-24.41q2.823-4.643,2.823-16.5t-3.176-16.249q-3.176-4.39-11.745-4.39t-11.745,4.34q-3.176,4.34-3.176,16.3T206.953-24.359Zm52.172,8.934h-5.95V-65.888h5.95v3.734A33.574,33.574,0,0,1,275.558-66.9q10.082,0,13.459,5.349t3.377,19.58v26.544h-6.049V-41.666q0-11.607-2.218-15.694t-9.473-4.088a28.134,28.134,0,0,0-7.41,1.06,30.98,30.98,0,0,0-6,2.17l-2.117,1.009Z" transform="translate(-3.66 89.3)"/>
      <path id="Pfad_5" data-name="Pfad 5" class="cls-3" d="M0,0H95.286V4.969H0Z" transform="translate(193.447 4.596)"/>
    </g>
    <path id="Path_1" data-name="Path 1" class="cls-3" d="M15.6-27.592a11.065,11.065,0,0,1,6.186,1.619,9.824,9.824,0,0,1,3.687,4.433,16.128,16.128,0,0,1,1.216,6.45v1.818H5.717q0,5.578,2.766,8.566t7.922,2.988a23.457,23.457,0,0,0,4.689-.411,25.344,25.344,0,0,0,4.422-1.407V-1.22A21.573,21.573,0,0,1,21.242.087,26.252,26.252,0,0,1,16.325.5,14.677,14.677,0,0,1,8.937-1.208,10.914,10.914,0,0,1,4.448-6.026,16.485,16.485,0,0,1,2.938-13.3a17.6,17.6,0,0,1,1.456-7.3A11.842,11.842,0,0,1,8.67-25.712,12.219,12.219,0,0,1,15.6-27.592Zm-.027,2.167A9.126,9.126,0,0,0,8.83-22.848,11.68,11.68,0,0,0,5.8-15.415H23.887a13.979,13.979,0,0,0-.908-5.229,7.558,7.558,0,0,0-2.739-3.524A8.056,8.056,0,0,0,15.577-25.425Zm31.877-2.167q4.89,0,7.508,2.391t2.619,7.5V0H54.909V-17.556q0-4.034-1.977-5.927a7.993,7.993,0,0,0-5.745-1.893q-4.783,0-7.308,2.6t-2.525,7.857V0h-2.7V-27.069h2.191l.4,4.931h.16a9.67,9.67,0,0,1,2.124-2.752,10.06,10.06,0,0,1,3.327-1.967A13.166,13.166,0,0,1,47.454-27.592Zm27.2,39.844q-5.478,0-8.51-1.967a6.21,6.21,0,0,1-3.033-5.5A6.687,6.687,0,0,1,64.955.062a7.926,7.926,0,0,1,5-2.378A5.434,5.434,0,0,1,67.908-3.81,3.323,3.323,0,0,1,67.119-6a4.169,4.169,0,0,1,.935-2.6,8.846,8.846,0,0,1,2.806-2.229,7.738,7.738,0,0,1-3.955-2.876A8.225,8.225,0,0,1,65.463-18.6a8.814,8.814,0,0,1,1.256-4.756,8.323,8.323,0,0,1,3.567-3.125,12.522,12.522,0,0,1,5.464-1.108q.962,0,1.75.05a14.27,14.27,0,0,1,1.456.162,8.341,8.341,0,0,1,1.2.286h9.379V-25.3l-5.985.374a9.267,9.267,0,0,1,1.764,2.851,8.922,8.922,0,0,1,.588,3.225,8.041,8.041,0,0,1-2.725,6.4q-2.725,2.366-7.588,2.366a15.184,15.184,0,0,1-2.619-.224A10.089,10.089,0,0,0,70.486-8.5a3.163,3.163,0,0,0-.855,2.254,1.872,1.872,0,0,0,.534,1.382,3.485,3.485,0,0,0,1.55.822A9.275,9.275,0,0,0,74.2-3.76h5.1q4.729,0,7.241,1.793a6.072,6.072,0,0,1,2.512,5.279,7.369,7.369,0,0,1-3.754,6.6Q81.548,12.252,74.654,12.252Zm.187-2.117a22.351,22.351,0,0,0,6.373-.772,7.884,7.884,0,0,0,3.834-2.279,5.545,5.545,0,0,0,1.283-3.723A3.954,3.954,0,0,0,85.4.548,5.042,5.042,0,0,0,82.751-.834a18.514,18.514,0,0,0-4.035-.386H73.853a13.5,13.5,0,0,0-4.142.585A5.7,5.7,0,0,0,66.892,1.22a5.316,5.316,0,0,0-1,3.387,4.547,4.547,0,0,0,2.285,4.121A12.845,12.845,0,0,0,74.842,10.135ZM75.7-12.1A8.117,8.117,0,0,0,81.228-13.8,6.188,6.188,0,0,0,83.151-18.7a6.462,6.462,0,0,0-1.977-5.155,8.163,8.163,0,0,0-5.531-1.718,7.626,7.626,0,0,0-5.411,1.83A6.684,6.684,0,0,0,68.268-18.6a6.159,6.159,0,0,0,1.87,4.794A8,8,0,0,0,75.7-12.1ZM98.088-27.069V0h-2.7V-27.069ZM96.778-37.08a1.867,1.867,0,0,1,1.5.56,2.235,2.235,0,0,1,.481,1.507,2.186,2.186,0,0,1-.481,1.494,1.89,1.89,0,0,1-1.5.548,1.819,1.819,0,0,1-1.443-.548,2.186,2.186,0,0,1-.481-1.494,2.235,2.235,0,0,1,.481-1.507A1.8,1.8,0,0,1,96.778-37.08Zm23.781,9.488q4.89,0,7.508,2.391t2.619,7.5V0h-2.672V-17.556q0-4.034-1.977-5.927a7.993,7.993,0,0,0-5.745-1.893q-4.783,0-7.308,2.6t-2.525,7.857V0h-2.7V-27.069h2.191l.4,4.931h.16a9.67,9.67,0,0,1,2.124-2.752,10.06,10.06,0,0,1,3.327-1.967A13.166,13.166,0,0,1,120.559-27.592Zm30.514,0a11.065,11.065,0,0,1,6.186,1.619,9.824,9.824,0,0,1,3.687,4.433,16.128,16.128,0,0,1,1.216,6.45v1.818H141.187q0,5.578,2.766,8.566t7.922,2.988a23.457,23.457,0,0,0,4.689-.411,25.344,25.344,0,0,0,4.422-1.407V-1.22A21.573,21.573,0,0,1,156.711.087,26.252,26.252,0,0,1,151.795.5a14.677,14.677,0,0,1-7.388-1.706,10.914,10.914,0,0,1-4.489-4.819,16.485,16.485,0,0,1-1.51-7.271,17.6,17.6,0,0,1,1.456-7.3,11.842,11.842,0,0,1,4.275-5.117A12.219,12.219,0,0,1,151.073-27.592Zm-.027,2.167a9.126,9.126,0,0,0-6.747,2.577,11.68,11.68,0,0,0-3.033,7.433h18.089a13.979,13.979,0,0,0-.908-5.229,7.558,7.558,0,0,0-2.739-3.524A8.056,8.056,0,0,0,151.046-25.425Zm30.087-2.167a11.065,11.065,0,0,1,6.186,1.619,9.824,9.824,0,0,1,3.687,4.433,16.128,16.128,0,0,1,1.216,6.45v1.818H171.247q0,5.578,2.766,8.566t7.922,2.988a23.457,23.457,0,0,0,4.689-.411,25.344,25.344,0,0,0,4.422-1.407V-1.22A21.573,21.573,0,0,1,186.771.087,26.252,26.252,0,0,1,181.854.5a14.677,14.677,0,0,1-7.388-1.706,10.914,10.914,0,0,1-4.489-4.819,16.484,16.484,0,0,1-1.51-7.271,17.6,17.6,0,0,1,1.456-7.3,11.842,11.842,0,0,1,4.275-5.117A12.219,12.219,0,0,1,181.133-27.592Zm-.027,2.167a9.126,9.126,0,0,0-6.747,2.577,11.68,11.68,0,0,0-3.033,7.433h18.089a13.979,13.979,0,0,0-.908-5.229,7.558,7.558,0,0,0-2.739-3.524A8.056,8.056,0,0,0,181.106-25.425Zm30.648-2.117a17.806,17.806,0,0,1,2.164.125,15.236,15.236,0,0,1,1.9.349l-.428,2.316a14.432,14.432,0,0,0-1.79-.336,15.964,15.964,0,0,0-1.951-.112,8.918,8.918,0,0,0-3.674.722,7.506,7.506,0,0,0-2.739,2.067,9.283,9.283,0,0,0-1.71,3.237,14.24,14.24,0,0,0-.588,4.233V0h-2.725V-27.069h2.325l.267,5.1h.16a9.258,9.258,0,0,1,1.884-2.826,8.992,8.992,0,0,1,2.953-2A9.922,9.922,0,0,1,211.754-27.542Zm12.425.473V0h-2.7V-27.069ZM222.869-37.08a1.867,1.867,0,0,1,1.5.56,2.235,2.235,0,0,1,.481,1.507,2.186,2.186,0,0,1-.481,1.494,1.89,1.89,0,0,1-1.5.548,1.819,1.819,0,0,1-1.443-.548,2.186,2.186,0,0,1-.481-1.494,2.235,2.235,0,0,1,.481-1.507A1.8,1.8,0,0,1,222.869-37.08Zm23.781,9.488q4.89,0,7.508,2.391t2.619,7.5V0H254.1V-17.556q0-4.034-1.977-5.927a7.993,7.993,0,0,0-5.745-1.893q-4.783,0-7.308,2.6t-2.525,7.857V0h-2.7V-27.069h2.191l.4,4.931h.16a9.67,9.67,0,0,1,2.124-2.752,10.06,10.06,0,0,1,3.327-1.967A13.166,13.166,0,0,1,246.65-27.592Zm27.2,39.844q-5.478,0-8.51-1.967a6.21,6.21,0,0,1-3.033-5.5A6.687,6.687,0,0,1,264.151.062a7.926,7.926,0,0,1,5-2.378A5.434,5.434,0,0,1,267.1-3.81,3.323,3.323,0,0,1,266.316-6a4.169,4.169,0,0,1,.935-2.6,8.846,8.846,0,0,1,2.806-2.229,7.738,7.738,0,0,1-3.955-2.876,8.225,8.225,0,0,1-1.443-4.893,8.814,8.814,0,0,1,1.256-4.756,8.323,8.323,0,0,1,3.567-3.125,12.522,12.522,0,0,1,5.464-1.108q.962,0,1.75.05a14.269,14.269,0,0,1,1.456.162,8.341,8.341,0,0,1,1.2.286h9.379V-25.3l-5.985.374a9.267,9.267,0,0,1,1.764,2.851,8.922,8.922,0,0,1,.588,3.225,8.041,8.041,0,0,1-2.725,6.4q-2.725,2.366-7.588,2.366a15.183,15.183,0,0,1-2.619-.224A10.09,10.09,0,0,0,269.682-8.5a3.163,3.163,0,0,0-.855,2.254,1.872,1.872,0,0,0,.534,1.382,3.484,3.484,0,0,0,1.55.822,9.275,9.275,0,0,0,2.485.286h5.1q4.729,0,7.241,1.793a6.072,6.072,0,0,1,2.512,5.279,7.369,7.369,0,0,1-3.754,6.6Q280.744,12.252,273.851,12.252Zm.187-2.117a22.351,22.351,0,0,0,6.373-.772,7.884,7.884,0,0,0,3.834-2.279,5.545,5.545,0,0,0,1.283-3.723,3.954,3.954,0,0,0-.935-2.814,5.042,5.042,0,0,0-2.645-1.382,18.514,18.514,0,0,0-4.035-.386h-4.863a13.5,13.5,0,0,0-4.142.585,5.7,5.7,0,0,0-2.819,1.855,5.316,5.316,0,0,0-1,3.387,4.547,4.547,0,0,0,2.285,4.121A12.845,12.845,0,0,0,274.038,10.135Zm.855-22.238a8.117,8.117,0,0,0,5.531-1.693,6.188,6.188,0,0,0,1.924-4.906,6.462,6.462,0,0,0-1.977-5.155,8.163,8.163,0,0,0-5.531-1.718,7.626,7.626,0,0,0-5.411,1.83,6.683,6.683,0,0,0-1.964,5.142,6.159,6.159,0,0,0,1.87,4.794A8,8,0,0,0,274.893-12.1Z" transform="translate(899 730)"/>
  </g>
</svg>
